<svg xmlns="http://www.w3.org/2000/svg" width="960" height="600" viewBox="0 0 960 600" role="img" aria-label="Astral Odyssey cover art">
  <defs>
    <linearGradient id="g" x1="0" y1="0" x2="1" y2="1">
      <stop offset="0" stop-color="#00D4FF"/>
      <stop offset="1" stop-color="#7C4DFF"/>
    </linearGradient>
    <radialGradient id="r" cx="30%" cy="25%" r="75%">
      <stop offset="0" stop-color="rgba(255,255,255,.22)"/>
      <stop offset="1" stop-color="rgba(255,255,255,0)"/>
    </radialGradient>
    <filter id="n" x="-20%" y="-20%" width="140%" height="140%">
      <feTurbulence type="fractalNoise" baseFrequency=".9" numOctaves="2" stitchTiles="stitch"/>
      <feColorMatrix type="matrix" values="
        0 0 0 0 0
        0 0 0 0 0
        0 0 0 0 0
        0 0 0 .18 0"/>
    </filter>
  </defs>
  <rect width="960" height="600" fill="#0B1020"/>
  <rect width="960" height="600" fill="url(#g)" opacity=".85"/>
  <rect width="960" height="600" fill="url(#r)"/>
  <rect width="960" height="600" filter="url(#n)" opacity=".65"/>
  <g opacity=".85">
    <path d="M70 430 C220 300, 340 520, 520 420 S 820 380, 900 260" fill="none" stroke="rgba(255,255,255,.22)" stroke-width="10"/>
    <path d="M60 510 C250 380, 420 560, 600 470 S 840 460, 930 330" fill="none" stroke="rgba(0,0,0,.25)" stroke-width="14"/>
  </g>
  <!-- Floating island + glider icon -->
  <g opacity=".28" transform="translate(210 200)">
    <ellipse cx="270" cy="230" rx="220" ry="70" fill="rgba(255,255,255,.16)" stroke="rgba(0,0,0,.20)" stroke-width="8"/>
    <path d="M120 230 C150 320, 220 410, 270 440 C320 410, 390 320, 420 230 Z"
      fill="rgba(0,0,0,.16)" stroke="rgba(255,255,255,.14)" stroke-width="6" stroke-linejoin="round"/>
    <path d="M210 190 L210 120 L240 90 L270 120 L270 190 Z"
      fill="rgba(255,255,255,.14)"/>
    <path d="M150 165 L210 120 L270 165" fill="none" stroke="rgba(255,255,255,.18)" stroke-width="8" stroke-linecap="round" stroke-linejoin="round"/>
    <path d="M300 110 L420 150 L300 190 Z" fill="rgba(255,255,255,.18)" stroke="rgba(0,0,0,.18)" stroke-width="6" stroke-linejoin="round"/>
    <path d="M300 110 L240 160" stroke="rgba(255,255,255,.14)" stroke-width="6" stroke-linecap="round"/>
  </g>
  <g>
    <text x="56" y="88" fill="rgba(255,255,255,.92)" font-family="ui-sans-serif,system-ui" font-weight="800" font-size="44">Astral Odyssey</text>
    <text x="58" y="126" fill="rgba(255,255,255,.75)" font-family="ui-monospace,monospace" font-weight="700" font-size="18">GAME STORE - DEMO ART</text>
  </g>
</svg>
