<svg xmlns="http://www.w3.org/2000/svg" width="960" height="600" viewBox="0 0 960 600" role="img" aria-label="Iron Legion cover art">
  <defs>
    <linearGradient id="g" x1="0" y1="0" x2="1" y2="1">
      <stop offset="0" stop-color="#FF4D6D"/>
      <stop offset="1" stop-color="#FFB020"/>
    </linearGradient>
    <radialGradient id="r" cx="30%" cy="25%" r="75%">
      <stop offset="0" stop-color="rgba(255,255,255,.22)"/>
      <stop offset="1" stop-color="rgba(255,255,255,0)"/>
    </radialGradient>
    <filter id="n" x="-20%" y="-20%" width="140%" height="140%">
      <feTurbulence type="fractalNoise" baseFrequency=".9" numOctaves="2" stitchTiles="stitch"/>
      <feColorMatrix type="matrix" values="
        0 0 0 0 0
        0 0 0 0 0
        0 0 0 0 0
        0 0 0 .18 0"/>
    </filter>
  </defs>
  <rect width="960" height="600" fill="#0B1020"/>
  <rect width="960" height="600" fill="url(#g)" opacity=".85"/>
  <rect width="960" height="600" fill="url(#r)"/>
  <rect width="960" height="600" filter="url(#n)" opacity=".65"/>
  <g opacity=".85">
    <path d="M70 430 C220 300, 340 520, 520 420 S 820 380, 900 260" fill="none" stroke="rgba(255,255,255,.22)" stroke-width="10"/>
    <path d="M60 510 C250 380, 420 560, 600 470 S 840 460, 930 330" fill="none" stroke="rgba(0,0,0,.25)" stroke-width="14"/>
  </g>
  <!-- Shield / legion emblem -->
  <g opacity=".28" transform="translate(280 170)">
    <path d="M200 40 L360 90 L360 240 C360 330, 300 400, 200 445 C100 400, 40 330, 40 240 L40 90 Z"
      fill="rgba(255,255,255,.20)" stroke="rgba(0,0,0,.22)" stroke-width="8" />
    <path d="M200 92 L298 124 L298 232 C298 292, 258 342, 200 376 C142 342, 102 292, 102 232 L102 124 Z"
      fill="rgba(0,0,0,.14)" stroke="rgba(255,255,255,.16)" stroke-width="6" />
    <path d="M200 142 L230 206 L300 212 L246 254 L262 322 L200 286 L138 322 L154 254 L100 212 L170 206 Z"
      fill="rgba(255,255,255,.18)" />
  </g>
  <g>
    <text x="56" y="88" fill="rgba(255,255,255,.92)" font-family="ui-sans-serif,system-ui" font-weight="800" font-size="44">Iron Legion</text>
    <text x="58" y="126" fill="rgba(255,255,255,.75)" font-family="ui-monospace,monospace" font-weight="700" font-size="18">GAME STORE - DEMO ART</text>
  </g>
</svg>
