<svg xmlns="http://www.w3.org/2000/svg" width="960" height="600" viewBox="0 0 960 600" role="img" aria-label="Pixel Quest DX cover art">
  <defs>
    <linearGradient id="g" x1="0" y1="0" x2="1" y2="1">
      <stop offset="0" stop-color="#35D07F"/>
      <stop offset="1" stop-color="#00D4FF"/>
    </linearGradient>
    <radialGradient id="r" cx="30%" cy="25%" r="75%">
      <stop offset="0" stop-color="rgba(255,255,255,.22)"/>
      <stop offset="1" stop-color="rgba(255,255,255,0)"/>
    </radialGradient>
    <filter id="n" x="-20%" y="-20%" width="140%" height="140%">
      <feTurbulence type="fractalNoise" baseFrequency=".9" numOctaves="2" stitchTiles="stitch"/>
      <feColorMatrix type="matrix" values="
        0 0 0 0 0
        0 0 0 0 0
        0 0 0 0 0
        0 0 0 .18 0"/>
    </filter>
  </defs>
  <rect width="960" height="600" fill="#0B1020"/>
  <rect width="960" height="600" fill="url(#g)" opacity=".85"/>
  <rect width="960" height="600" fill="url(#r)"/>
  <rect width="960" height="600" filter="url(#n)" opacity=".65"/>
  <g opacity=".85">
    <path d="M70 430 C220 300, 340 520, 520 420 S 820 380, 900 260" fill="none" stroke="rgba(255,255,255,.22)" stroke-width="10"/>
    <path d="M60 510 C250 380, 420 560, 600 470 S 840 460, 930 330" fill="none" stroke="rgba(0,0,0,.25)" stroke-width="14"/>
  </g>
  <!-- Pixel blocks icon -->
  <g opacity=".30" transform="translate(240 170)">
    <g fill="rgba(255,255,255,.18)" stroke="rgba(0,0,0,.18)" stroke-width="6">
      <rect x="60" y="90" width="70" height="70" rx="10"/>
      <rect x="140" y="90" width="70" height="70" rx="10"/>
      <rect x="220" y="90" width="70" height="70" rx="10"/>
      <rect x="300" y="90" width="70" height="70" rx="10"/>
      <rect x="60" y="170" width="70" height="70" rx="10"/>
      <rect x="140" y="170" width="70" height="70" rx="10"/>
      <rect x="220" y="170" width="70" height="70" rx="10"/>
      <rect x="300" y="170" width="70" height="70" rx="10"/>
      <rect x="100" y="250" width="70" height="70" rx="10"/>
      <rect x="180" y="250" width="70" height="70" rx="10"/>
      <rect x="260" y="250" width="70" height="70" rx="10"/>
    </g>
    <path d="M145 120 L285 120" stroke="rgba(255,255,255,.18)" stroke-width="12" stroke-linecap="round"/>
    <path d="M215 120 L215 300" stroke="rgba(255,255,255,.18)" stroke-width="12" stroke-linecap="round"/>
  </g>
  <g>
    <text x="56" y="88" fill="rgba(255,255,255,.92)" font-family="ui-sans-serif,system-ui" font-weight="800" font-size="44">Pixel Quest DX</text>
    <text x="58" y="126" fill="rgba(255,255,255,.75)" font-family="ui-monospace,monospace" font-weight="700" font-size="18">GAME STORE - DEMO ART</text>
  </g>
</svg>
