<svg xmlns="http://www.w3.org/2000/svg" width="960" height="600" viewBox="0 0 960 600" role="img" aria-label="Skyforge Tactics cover art">
  <defs>
    <linearGradient id="g" x1="0" y1="0" x2="1" y2="1">
      <stop offset="0" stop-color="#FFB020"/>
      <stop offset="1" stop-color="#7C4DFF"/>
    </linearGradient>
    <radialGradient id="r" cx="30%" cy="25%" r="75%">
      <stop offset="0" stop-color="rgba(255,255,255,.22)"/>
      <stop offset="1" stop-color="rgba(255,255,255,0)"/>
    </radialGradient>
    <filter id="n" x="-20%" y="-20%" width="140%" height="140%">
      <feTurbulence type="fractalNoise" baseFrequency=".9" numOctaves="2" stitchTiles="stitch"/>
      <feColorMatrix type="matrix" values="
        0 0 0 0 0
        0 0 0 0 0
        0 0 0 0 0
        0 0 0 .18 0"/>
    </filter>
  </defs>
  <rect width="960" height="600" fill="#0B1020"/>
  <rect width="960" height="600" fill="url(#g)" opacity=".85"/>
  <rect width="960" height="600" fill="url(#r)"/>
  <rect width="960" height="600" filter="url(#n)" opacity=".65"/>
  <g opacity=".85">
    <path d="M70 430 C220 300, 340 520, 520 420 S 820 380, 900 260" fill="none" stroke="rgba(255,255,255,.22)" stroke-width="10"/>
    <path d="M60 510 C250 380, 420 560, 600 470 S 840 460, 930 330" fill="none" stroke="rgba(0,0,0,.25)" stroke-width="14"/>
  </g>
  <!-- Crossed swords / tactics icon -->
  <g opacity=".28" transform="translate(260 165)">
    <g transform="rotate(-24 220 220)">
      <rect x="205" y="40" width="30" height="310" rx="12" fill="rgba(255,255,255,.18)" stroke="rgba(0,0,0,.20)" stroke-width="6"/>
      <path d="M220 32 L256 70 L220 88 L184 70 Z" fill="rgba(255,255,255,.20)"/>
      <rect x="190" y="330" width="60" height="24" rx="10" fill="rgba(0,0,0,.18)"/>
    </g>
    <g transform="rotate(24 220 220)">
      <rect x="205" y="40" width="30" height="310" rx="12" fill="rgba(255,255,255,.18)" stroke="rgba(0,0,0,.20)" stroke-width="6"/>
      <path d="M220 32 L256 70 L220 88 L184 70 Z" fill="rgba(255,255,255,.20)"/>
      <rect x="190" y="330" width="60" height="24" rx="10" fill="rgba(0,0,0,.18)"/>
    </g>
    <circle cx="220" cy="250" r="46" fill="rgba(0,0,0,.16)" stroke="rgba(255,255,255,.16)" stroke-width="8"/>
  </g>
  <g>
    <text x="56" y="88" fill="rgba(255,255,255,.92)" font-family="ui-sans-serif,system-ui" font-weight="800" font-size="44">Skyforge Tactics</text>
    <text x="58" y="126" fill="rgba(255,255,255,.75)" font-family="ui-monospace,monospace" font-weight="700" font-size="18">GAME STORE - DEMO ART</text>
  </g>
</svg>
